<?xml version="1.0" encoding="UTF-8" standalone="no"?>
<!-- Generator: Adobe Illustrator 13.0.0, SVG Export Plug-In . SVG Version: 6.00 Build 14948)  -->

<svg
   xmlns:dc="http://purl.org/dc/elements/1.1/"
   xmlns:cc="http://creativecommons.org/ns#"
   xmlns:rdf="http://www.w3.org/1999/02/22-rdf-syntax-ns#"
   xmlns:svg="http://www.w3.org/2000/svg"
   xmlns="http://www.w3.org/2000/svg"
   xmlns:sodipodi="http://sodipodi.sourceforge.net/DTD/sodipodi-0.dtd"
   xmlns:inkscape="http://www.inkscape.org/namespaces/inkscape"
   version="1.0"
   id="Layer_1"
   x="0px"
   y="0px"
   width="439.54999"
   height="439.548"
   viewBox="0 0 439.54999 439.548"
   xml:space="preserve"
   inkscape:version="0.48.4 r9939"
   sodipodi:docname="ghostbuster.svg"><metadata
     id="metadata53"><rdf:RDF><cc:Work
         rdf:about=""><dc:format>image/svg+xml</dc:format><dc:type
           rdf:resource="http://purl.org/dc/dcmitype/StillImage" /><dc:title></dc:title></cc:Work></rdf:RDF></metadata><defs
     id="defs51"><inkscape:perspective
       sodipodi:type="inkscape:persp3d"
       inkscape:vp_x="0 : 250 : 1"
       inkscape:vp_y="0 : 1000 : 0"
       inkscape:vp_z="500 : 250 : 1"
       inkscape:persp3d-origin="250 : 166.66667 : 1"
       id="perspective55" /></defs><sodipodi:namedview
     pagecolor="#ffffff"
     bordercolor="#666666"
     borderopacity="1"
     objecttolerance="10"
     gridtolerance="10"
     guidetolerance="10"
     inkscape:pageopacity="0"
     inkscape:pageshadow="2"
     inkscape:window-width="1920"
     inkscape:window-height="1153"
     id="namedview49"
     showgrid="false"
     inkscape:zoom="1.6421381"
     inkscape:cx="166.3122"
     inkscape:cy="160.12067"
     inkscape:window-x="1600"
     inkscape:window-y="0"
     inkscape:window-maximized="1"
     inkscape:current-layer="g3941" /><circle
     style="fill:#ffffff;stroke:#000000"
     cx="249.5"
     cy="249.5"
     r="205"
     id="circle3"
     sodipodi:cx="249.5"
     sodipodi:cy="249.5"
     sodipodi:rx="205"
     sodipodi:ry="205"
     transform="translate(-30.253,-31.61)" /><g
     id="g37"
     transform="translate(-30.253,-31.61)"><line
       id="line39"
       y2="109.275"
       x2="110.112"
       y1="392.509"
       x1="393.35001"
       style="fill:none;stroke:#ffffff;stroke-width:55;stroke-miterlimit:10" /><g
       id="g41"><path
         inkscape:connector-curvature="0"
         id="path43"
         d="m 250.029,446.658 c -107.846,0 -195.276,-87.428 -195.276,-195.271 0,-107.848 87.43,-195.277 195.276,-195.277 107.845,0 195.274,87.429 195.274,195.277 0,107.843 -87.429,195.271 -195.274,195.271 z"
         style="fill:none;stroke:#ff0000;stroke-width:49;stroke-miterlimit:10" /><path
         inkscape:connector-curvature="0"
         id="path45"
         d="M 250.029,251.387"
         style="fill:none;stroke:#000000;stroke-width:49;stroke-miterlimit:10" /></g></g><g
     style="display:inline"
     inkscape:label="ghost"
     id="g3941"
     inkscape:groupmode="layer"><path
       inkscape:connector-curvature="0"
       id="path3945"
       d="m 238.37007,363.57006 c -0.69152,-0.76162 -3.52642,-4.81018 -6.29978,-8.99679 -6.2416,-9.42222 -10.62963,-14.9258 -13.13494,-16.47417 -2.21332,-1.36791 -7.16328,-1.5951 -9.8149,-0.45047 -4.07613,1.75954 -8.55418,5.18838 -16.95931,12.98573 -6.82468,6.33119 -9.09924,8.12091 -9.47273,7.45353 -0.27032,-0.48304 -1.30909,-5.82295 -2.30836,-11.86647 -3.22291,-19.49183 -8.22677,-28.78552 -15.50235,-28.79257 -6.79119,-0.007 -18.85806,5.37851 -35.10323,15.66555 -11.19291,7.08777 -14.96392,9.15378 -15.58127,8.53643 -0.63756,-0.63756 2.58948,-5.91758 8.62854,-14.11784 7.77055,-10.5514 12.02456,-17.51227 15.84826,-25.93267 3.53074,-7.77526 8.38252,-22.71023 9.35478,-28.7963 1.2607,-7.89165 1.84921,-31.4428 1.8284,-73.16881 -0.0291,-58.29263 1.10033,-74.51335 6.40498,-91.98896 3.67823,-12.117522 7.7268,-19.181687 15.02501,-26.216472 14.46066,-13.938708 35.45195,-21.057034 62.01487,-21.029773 21.9942,0.02257 35.85011,5.142768 47.58759,17.585117 4.97829,5.27725 6.92,8.083981 10.41781,15.058883 6.05914,12.082405 8.46377,22.820745 8.45717,37.767235 -0.006,14.2409 -1.26528,24.2482 -6.77873,53.88158 -8.426,45.28751 -9.08216,58.38385 -4.25622,84.95022 0.97347,5.35887 3.25119,15.49809 5.0616,22.5316 1.81041,7.03352 4.99243,19.365 7.07115,27.4033 3.58535,13.86437 5.13103,22.84557 3.92878,22.82822 -0.29978,-0.004 -1.90981,-2.10526 -3.57786,-4.66874 -9.25167,-14.2181 -22.90298,-21.86487 -35.11982,-19.67232 -5.24449,0.94123 -8.20222,2.34804 -11.62334,5.52853 -6.06968,5.64275 -9.1865,13.31511 -12.00142,29.54269 -0.93583,5.39487 -1.95707,10.26553 -2.26943,10.82368 -0.51183,0.91458 -0.69212,0.87803 -1.82525,-0.36994 z m -1.38452,-19.97616 c 1.54765,-0.82828 2.69158,-3.1368 3.92727,-7.92546 3.62032,-14.02977 14.67099,-23.05255 28.31399,-23.11814 2.17704,-0.0105 7.82607,0.57793 12.5534,1.30754 4.72733,0.72961 9.06044,1.14801 9.62915,0.92977 0.85284,-0.32726 0.96665,-0.90437 0.6496,-3.29389 -0.66598,-5.01924 -2.15482,-12.30618 -4.63116,-22.66666 -5.46434,-22.86171 -6.83718,-32.43543 -6.85798,-47.82524 -0.0212,-15.6635 0.84903,-22.63038 6.66545,-53.36482 6.21812,-32.85705 7.95906,-46.89428 7.3537,-59.29319 -1.52622,-31.259641 -14.19445,-51.115819 -38.23376,-59.92756 -6.25008,-2.291003 -10.33945,-2.70228 -22.6748,-2.280453 -29.53828,1.010108 -45.02752,5.841955 -57.13877,17.824353 -10.14133,10.033438 -16.0249,23.5722 -19.02329,43.7747 -2.36312,15.92224 -2.85148,31.19808 -2.65743,83.12334 0.1909,51.08132 0.0696,54.58398 -2.29645,66.30859 -1.1156,5.52817 -5.01111,16.98518 -9.33036,27.44135 -1.72255,4.16999 -3.29841,8.62302 -3.50191,9.89564 l -0.36999,2.31384 2.24017,0 c 1.2321,0 6.13121,-0.98527 10.88691,-2.18949 12.9445,-3.27775 18.64799,-2.68823 23.79578,2.45957 2.67607,2.67606 5.2585,8.22335 7.38677,15.86742 3.3475,12.02316 4.51495,12.63922 12.58587,6.64149 5.87275,-4.36421 13.43257,-7.72892 17.3653,-7.72892 4.72703,0 10.12701,2.8579 15.37483,8.13705 4.22387,4.24908 5.5996,4.86725 7.98771,3.58917 l 0,0 z"
       style="fill:#00000f;fill-opacity:0.94117647;stroke:#000000;stroke-width:10;stroke-linecap:butt;stroke-linejoin:round;stroke-miterlimit:4;stroke-opacity:1;stroke-dasharray:none" /><path
       inkscape:connector-curvature="0"
       id="path3947"
       d="m 195.54239,159.21514 c 0,-0.26962 2.87734,-3.31157 6.3941,-6.75989 3.6378,-3.567 6.3941,-6.76416 6.3941,-7.41681 0,-0.75163 -2.39684,-2.94747 -6.95169,-6.3687 -6.47011,-4.85984 -8.58006,-6.97663 -6.95406,-6.97663 1.78821,0 21.84385,11.68902 21.80941,12.71117 -0.0256,0.75997 -12.32685,10.79031 -15.96469,13.01748 -3.78514,2.31735 -4.72717,2.67474 -4.72717,1.79338 z"
       style="fill:#00000f;fill-opacity:0.94117647;stroke:#000000;stroke-width:10;stroke-linecap:butt;stroke-linejoin:round;stroke-miterlimit:4;stroke-opacity:1;stroke-dasharray:none" /><path
       inkscape:connector-curvature="0"
       id="path3949"
       d="m 243.58328,154.6535 c -3.47984,-1.77374 -8.59671,-4.74987 -11.37083,-6.61362 l -5.04384,-3.38863 7.27016,-6.04663 c 6.99589,-5.81851 13.16609,-9.85862 13.91408,-9.11063 0.19663,0.19662 -2.42519,3.18527 -5.82625,6.64145 -4.51005,4.58314 -6.18374,6.69549 -6.18374,7.80442 0,1.85891 2.07387,3.87775 9.59115,9.33662 3.0981,2.24976 5.6329,4.20557 5.6329,4.34624 0,0.7791 -2.32999,-0.0875 -7.98363,-2.96922 z"
       style="fill:#00000f;fill-opacity:0.94117647;stroke:#000000;stroke-width:10;stroke-linecap:butt;stroke-linejoin:round;stroke-miterlimit:4;stroke-opacity:1;stroke-dasharray:none" /></g><g
     inkscape:groupmode="layer"
     id="layer1"
     inkscape:label="bar"
     style="display:inline"
     sodipodi:insensitive="true"><line
       transform="translate(-30.253,-31.609997)"
       id="line47"
       y2="108.957"
       x2="109.63"
       y1="392.19101"
       x1="392.86801"
       style="fill:none;stroke:#ff0000;stroke-width:51.11999893;stroke-miterlimit:10" /></g></svg>